<svg xmlns="http://www.w3.org/2000/svg" viewBox="0 0 1600 1000" preserveAspectRatio="xMidYMid slice">
  <defs>
    <linearGradient id="base" x1="0" y1="0" x2="1" y2="1">
      <stop offset="0%" stop-color="#0f3b60"/>
      <stop offset="50%" stop-color="#146a8a"/>
      <stop offset="100%" stop-color="#1f9d8f"/>
    </linearGradient>
    <radialGradient id="glowA" cx="20%" cy="20%" r="45%">
      <stop offset="0%" stop-color="#ffffff" stop-opacity="0.22"/>
      <stop offset="100%" stop-color="#ffffff" stop-opacity="0"/>
    </radialGradient>
    <radialGradient id="glowB" cx="80%" cy="80%" r="40%">
      <stop offset="0%" stop-color="#ffe8c7" stop-opacity="0.20"/>
      <stop offset="100%" stop-color="#ffe8c7" stop-opacity="0"/>
    </radialGradient>
  </defs>

  <rect width="1600" height="1000" fill="url(#base)"/>
  <ellipse cx="300" cy="220" rx="520" ry="260" fill="url(#glowA)"/>
  <ellipse cx="1300" cy="820" rx="520" ry="320" fill="url(#glowB)"/>

  <g fill="#ffffff" fill-opacity="0.08">
    <circle cx="180" cy="760" r="140"/>
    <circle cx="520" cy="860" r="90"/>
    <circle cx="980" cy="160" r="110"/>
    <circle cx="1420" cy="300" r="150"/>
  </g>

  <path d="M0 760 C 260 650, 400 900, 760 820 C 1060 750, 1260 900, 1600 820 L 1600 1000 L 0 1000 Z"
        fill="#ffffff" fill-opacity="0.10"/>
  <path d="M0 680 C 240 610, 460 760, 780 700 C 1080 640, 1320 760, 1600 700 L 1600 1000 L 0 1000 Z"
        fill="#ffffff" fill-opacity="0.07"/>
</svg>
