<?xml version="1.0" encoding="UTF-8"?>
<svg version="1.1" xmlns="http://www.w3.org/2000/svg" width="187" height="187">
<path d="M0 0 C2.47653086 2.19638031 4.88300985 4.44906506 7.27734375 6.734375 C8.18033203 7.52521484 8.18033203 7.52521484 9.1015625 8.33203125 C23.5870242 21.53439844 33.30312451 43.30524999 34.453125 62.69873047 C35.59052021 90.26025379 30.5368326 113.82412226 11.71484375 135.046875 C10.24154224 136.61490655 8.76289975 138.17794844 7.27734375 139.734375 C6.48650391 140.63736328 6.48650391 140.63736328 5.6796875 141.55859375 C-7.52267969 156.04405545 -29.29353124 165.76015576 -48.68701172 166.91015625 C-76.24853504 168.04755146 -99.81240351 162.99386385 -121.03515625 144.171875 C-122.6031878 142.69857349 -124.16622969 141.219931 -125.72265625 139.734375 C-126.32464844 139.20714844 -126.92664063 138.67992187 -127.546875 138.13671875 C-142.0323367 124.93435156 -151.74843701 103.16350001 -152.8984375 83.77001953 C-154.03583271 56.20849621 -148.9821451 32.64462774 -130.16015625 11.421875 C-128.68685474 9.85384345 -127.20821225 8.29080156 -125.72265625 6.734375 C-125.19542969 6.13238281 -124.66820313 5.53039062 -124.125 4.91015625 C-92.88074946 -29.37061992 -34.18421101 -28.44597186 0 0 Z " fill="#FDFDFD" transform="translate(152.72265625,20.265625)"/>
<path d="M0 0 C3.4375 1.75 3.4375 1.75 6 4 C6 5.32 6 6.64 6 8 C5.01 8 4.02 8 3 8 C3 7.34 3 6.68 3 6 C1.37536158 5.94604522 -0.24978541 5.90722805 -1.875 5.875 C-2.77992187 5.85179688 -3.68484375 5.82859375 -4.6171875 5.8046875 C-7.18806994 5.75675164 -7.18806994 5.75675164 -9 8 C-9.31537716 12.33643601 -9.44897847 14.32653229 -7 18 C-4.56306689 18.36416047 -4.56306689 18.36416047 -1.875 18.1875 C-0.96492188 18.16042969 -0.05484375 18.13335937 0.8828125 18.10546875 C1.58148438 18.07066406 2.28015625 18.03585938 3 18 C3 17.34 3 16.68 3 16 C0.03 15.505 0.03 15.505 -3 15 C-3 13.68 -3 12.36 -3 11 C0.63 11 4.26 11 8 11 C8.25 17.625 8.25 17.625 6 21 C5.34 21 4.68 21 4 21 C4 21.66 4 22.32 4 23 C0.26301756 24.19583438 -3.09975601 24.40347352 -7 24 C-10.7702055 21.85295814 -13.39461914 19.03595749 -15 15 C-15.41725045 10.97389919 -15.01725055 7.4069578 -12.61328125 4.08203125 C-8.64299309 0.32587099 -5.55804544 -1.01055372 0 0 Z " fill="#2A2A2A" transform="translate(88,83)"/>
<path d="M0 0 C1.32 0 2.64 0 4 0 C4 7.59 4 15.18 4 23 C-7.05797101 24.57971014 -7.05797101 24.57971014 -11.25 22 C-13.43548806 18.25344904 -13.68698909 16.27459876 -13 12 C-11.4375 9.0625 -11.4375 9.0625 -9 7 C-5.55602925 6.64372716 -3.12860495 6.43569752 0 8 C0 5.36 0 2.72 0 0 Z " fill="#313131" transform="translate(151,83)"/>
<path d="M0 0 C1.32 0 2.64 0 4 0 C4 7.59 4 15.18 4 23 C-6.99239544 24.57034221 -6.99239544 24.57034221 -11.3125 22.125 C-13.34867431 18.35430682 -13.25404405 16.23587264 -12.6875 12.0859375 C-11.87103802 9.60871762 -11.1061076 8.53479566 -9 7 C-6.27492202 6.60921444 -3.76878044 6.86383047 -1 7 C-0.67 4.69 -0.34 2.38 0 0 Z " fill="#242424" transform="translate(46,83)"/>
<path d="M0 0 C3.44150865 2.43773529 4.762119 3.85817119 5.625 8 C4.7706556 12.10085314 3.34048682 13.51240343 0 16 C-3.5 17.125 -3.5 17.125 -7 17 C-9.98170781 15.03334166 -11.64103498 13.59330089 -12.4453125 10.0234375 C-12.6333015 6.67723326 -12.22201079 4.37001798 -10.5 1.5 C-7.01402996 -0.59158203 -3.89784294 -0.8876276 0 0 Z " fill="#2A2A2A" transform="translate(131,90)"/>
<path d="M0 0 C3.44652326 2.44128731 4.78056289 3.82966874 5.5625 8 C4.8491179 11.80470451 3.88381579 13.41196019 1 16 C-2.49459462 16.93605213 -4.84605048 17.3742539 -8.3125 16.25 C-10 15 -10 15 -12 12 C-12.65753425 5.09589041 -12.65753425 5.09589041 -10.5 1.5 C-7.01402996 -0.59158203 -3.89784294 -0.8876276 0 0 Z " fill="#272727" transform="translate(111,90)"/>
<path d="M0 0 C3.44150865 2.43773529 4.762119 3.85817119 5.625 8 C4.77734513 12.06874335 3.28218153 13.50268796 0 16 C-2.9375 17.125 -2.9375 17.125 -6 17 C-10.24197248 14.56479358 -10.24197248 14.56479358 -12 12 C-12.79954025 8.9350957 -12.51788295 7.26266259 -12 4 C-9.22048525 -0.63252459 -5.03465073 -1.14650462 0 0 Z " fill="#232323" transform="translate(66,90)"/>
<path d="M0 0 C0.33 0 0.66 0 1 0 C1.042721 1.66611905 1.04063832 3.33382885 1 5 C0.67 5.33 0.34 5.66 0 6 C0.66 6.33 1.32 6.66 2 7 C2 8.98 2 10.96 2 13 C1.67 13 1.34 13 1 13 C1 11.35 1 9.7 1 8 C-2.63 8 -6.26 8 -10 8 C-10 9.32 -10 10.64 -10 12 C-7.69 12 -5.38 12 -3 12 C-4 15 -4 15 -6 16 C-13.26224784 16.57636888 -13.26224784 16.57636888 -16 14.4375 C-17.37020241 11.09763163 -17.3898913 8.57400356 -17 5 C-16 3.0625 -16 3.0625 -14 2 C-10.52932887 1.62383319 -7.18985607 1.40507197 -4 3 C-4 3.66 -4 4.32 -4 5 C-3.01 4.67 -2.02 4.34 -1 4 C-0.26676204 1.98491642 -0.26676204 1.98491642 0 0 Z " fill="#E7E7E7" transform="translate(95,86)"/>
<path d="M0 0 C0.99 0 1.98 0 3 0 C3 7.59 3 15.18 3 23 C1.02 22.67 -0.96 22.34 -3 22 C-3 19 -3 19 -2 18 C-1.66073053 15.66752239 -1.32759934 13.33414529 -1 11 C-0.67 10.34 -0.34 9.68 0 9 C0.06950541 7.45976004 0.08452357 5.91665012 0.0625 4.375 C0.05347656 3.55773437 0.04445313 2.74046875 0.03515625 1.8984375 C0.02355469 1.27195312 0.01195312 0.64546875 0 0 Z " fill="#1A1A1A" transform="translate(47,83)"/>
<path d="M0 0 C0.66 0.66 1.32 1.32 2 2 C-0.70879335 3.35439668 -3.00933268 3.06501451 -6 3 C-7.02703748 8.55493924 -7.02703748 8.55493924 -6 14 C-7.32 14.33 -8.64 14.66 -10 15 C-12.46220488 11.30669268 -12.67270703 8.2863512 -12 4 C-8.99630791 -1.00615349 -5.31392967 -0.51425126 0 0 Z " fill="#2A2A2A" transform="translate(111,90)"/>
<path d="M0 0 C0.99 0 1.98 0 3 0 C3 7.59 3 15.18 3 23 C2.01 23 1.02 23 0 23 C0 22.34 0 21.68 0 21 C-0.66 20.67 -1.32 20.34 -2 20 C-1.67 19.67 -1.34 19.34 -1 19 C-1.30300475 16.66253478 -1.63858045 14.32914823 -2 12 C-2 11.01 -2 10.02 -2 9 C-1.34 9 -0.68 9 0 9 C0 6.03 0 3.06 0 0 Z " fill="#161616" transform="translate(152,83)"/>
<path d="M0 0 C3.4375 1.75 3.4375 1.75 6 4 C6 5.32 6 6.64 6 8 C5.01 8 4.02 8 3 8 C3 7.34 3 6.68 3 6 C-0.63 6 -4.26 6 -8 6 C-8.33 5.34 -8.66 4.68 -9 4 C-10.65 5.32 -12.3 6.64 -14 8 C-11.40601308 1.3971242 -6.92671447 -0.97217045 0 0 Z " fill="#333333" transform="translate(88,83)"/>
<path d="M0 0 C3.63 0 7.26 0 11 0 C11.25 6.625 11.25 6.625 9 10 C8.34 10 7.68 10 7 10 C7 10.66 7 11.32 7 12 C6.34 11.67 5.68 11.34 5 11 C5.66 10.01 6.32 9.02 7 8 C6.67 7.01 6.34 6.02 6 5 C3.03 4.505 3.03 4.505 0 4 C0 2.68 0 1.36 0 0 Z M6 8 C5 9 5 9 1.4375 9.0625 C0.303125 9.041875 -0.83125 9.02125 -2 9 C-2 8.67 -2 8.34 -2 8 C3.75 6.875 3.75 6.875 6 8 Z " fill="#434343" transform="translate(85,94)"/>
<path d="M0 0 C3.25696479 0.41755959 4.63443291 0.63443291 7 3 C6.43181818 8.56818182 6.43181818 8.56818182 5 10 C2.5625 10.1875 2.5625 10.1875 0 10 C-0.66 9.34 -1.32 8.68 -2 8 C-1.42307692 1.42307692 -1.42307692 1.42307692 0 0 Z " fill="#E0E0E0" transform="translate(60,93)"/>
<path d="M0 0 C3 0.125 3 0.125 4 1.125 C4.1875 4.0625 4.1875 4.0625 4 7.125 C2 9.125 2 9.125 -0.5 9.4375 C-1.7375 9.2828125 -1.7375 9.2828125 -3 9.125 C-5 6.125 -5 6.125 -4.6875 3.5 C-3.68897505 0.05055016 -3.71397355 0.1547489 0 0 Z " fill="#E9E9E9" transform="translate(147,93.875)"/>
<path d="M0 0 C3 0.125 3 0.125 4 1.125 C4.1875 4.0625 4.1875 4.0625 4 7.125 C2 9.125 2 9.125 -0.5 9.4375 C-1.7375 9.2828125 -1.7375 9.2828125 -3 9.125 C-5 6.125 -5 6.125 -4.6875 3.5 C-3.68897505 0.05055016 -3.71397355 0.1547489 0 0 Z " fill="#E8E8E8" transform="translate(42,93.875)"/>
<path d="M0 0 C1.4540625 0.0309375 1.4540625 0.0309375 2.9375 0.0625 C3.5625 2.875 3.5625 2.875 3.9375 6.0625 C2.9475 7.5475 2.9475 7.5475 1.9375 9.0625 C-0.5625 9.4375 -0.5625 9.4375 -3.0625 9.0625 C-5.0625 6.0625 -5.0625 6.0625 -4.75 3.4375 C-3.74055958 -0.0496578 -3.77085022 0.07695613 0 0 Z " fill="#F1F1F1" transform="translate(108.0625,93.9375)"/>
<path d="M0 0 C3 0.125 3 0.125 4 1.125 C4.1875 4.0625 4.1875 4.0625 4 7.125 C3.34 7.785 2.68 8.445 2 9.125 C-2.55555556 8.56944444 -2.55555556 8.56944444 -4 7.125 C-4.125 4.125 -4.125 4.125 -4 1.125 C-3 0.125 -3 0.125 0 0 Z " fill="#ECECEC" transform="translate(127,93.875)"/>
<path d="M0 0 C0.5625 1.9375 0.5625 1.9375 1 4 C0.67 4.33 0.34 4.66 0 5 C-0.23363881 6.84891946 -0.41303635 8.70488031 -0.5625 10.5625 C-0.64628906 11.57441406 -0.73007813 12.58632812 -0.81640625 13.62890625 C-0.87699219 14.41136719 -0.93757813 15.19382812 -1 16 C-1.99 16 -2.98 16 -4 16 C-6.11123517 12.56924285 -6.63878831 9.99242692 -6 6 C-4.18481284 3.67824899 -2.23651082 1.95694697 0 0 Z " fill="#242424" transform="translate(79,86)"/>
<path d="M0 0 C0.28875 0.639375 0.5775 1.27875 0.875 1.9375 C1.82823451 4.15206079 1.82823451 4.15206079 4 5 C3.06788763 7.33028092 2.30996602 8.75891532 0.3125 10.3125 C-3.03100189 11.30651407 -5.63810737 10.76118324 -9 10 C-9.33 9.34 -9.66 8.68 -10 8 C-9.34 7.67 -8.68 7.34 -8 7 C-7.67 6.34 -7.34 5.68 -7 5 C-5.35 5.33 -3.7 5.66 -2 6 C-1.34 4.02 -0.68 2.04 0 0 Z " fill="#3D3D3D" transform="translate(131,96)"/>
<path d="M0 0 C0.66 0.33 1.32 0.66 2 1 C2.28875 2.134375 2.5775 3.26875 2.875 4.4375 C3.61302892 8.05886586 3.61302892 8.05886586 6.125 9.4375 C6.74375 9.623125 7.3625 9.80875 8 10 C6.02 10.66 4.04 11.32 2 12 C-0.87398748 9.66488517 -1.92491816 8.62568199 -2.375 4.875 C-2 2 -2 2 0 0 Z " fill="#1E1E1E" transform="translate(56,94)"/>
<path d="M0 0 C0.33 0 0.66 0 1 0 C1.08096803 1.45742463 1.13917774 2.91612807 1.1875 4.375 C1.22230469 5.18710938 1.25710937 5.99921875 1.29296875 6.8359375 C1.19628906 7.55007812 1.09960938 8.26421875 1 9 C-2.18762365 11.12508244 -4.26512223 11.5020163 -8 12 C-8 11.34 -8 10.68 -8 10 C-9.98 10.99 -9.98 10.99 -12 12 C-10.125 8.125 -10.125 8.125 -9 7 C-2.47457627 6.76271186 -2.47457627 6.76271186 0 8 C0 5.36 0 2.72 0 0 Z " fill="#393939" transform="translate(151,83)"/>
<path d="M0 0 C0.33 0 0.66 0 1 0 C1 2.97 1 5.94 1 9 C1.66 9.33 2.32 9.66 3 10 C0.3151523 11.75547734 -0.92002215 12.00627277 -4.1875 11.75 C-5.115625 11.5025 -6.04375 11.255 -7 11 C-7.33 10.34 -7.66 9.68 -8 9 C-8.66 8.67 -9.32 8.34 -10 8 C-9 7 -9 7 -7.15234375 6.90234375 C-5.1015625 6.93489583 -3.05078125 6.96744792 -1 7 C-0.67 4.69 -0.34 2.38 0 0 Z " fill="#363636" transform="translate(46,83)"/>
<path d="M0 0 C0.66 0.33 1.32 0.66 2 1 C2 1.66 2 2.32 2 3 C2.804375 3.12375 3.60875 3.2475 4.4375 3.375 C5.7059375 3.684375 5.7059375 3.684375 7 4 C7.33 4.66 7.66 5.32 8 6 C4.75 6.8125 4.75 6.8125 1 7 C-1.4375 4.5625 -1.4375 4.5625 -3 2 C-2.01 1.34 -1.02 0.68 0 0 Z " fill="#2F2F2F" transform="translate(37,100)"/>
<path d="M0 0 C-0.33 2.97 -0.66 5.94 -1 9 C-2.32 9 -3.64 9 -5 9 C-5.1875 5.625 -5.1875 5.625 -5 2 C-2 0 -2 0 0 0 Z " fill="#202020" transform="translate(143,93)"/>
<path d="M0 0 C0.99 0.33 1.98 0.66 3 1 C1.02 1.99 1.02 1.99 -1 3 C-0.01 4.485 -0.01 4.485 1 6 C1.99 6 2.98 6 4 6 C4.66 6 5.32 6 6 6 C5.67 6.99 5.34 7.98 5 9 C2.625 9.1875 2.625 9.1875 0 9 C-2 6 -2 6 -1.6875 3.375 C-1 1 -1 1 0 0 Z " fill="#DADADA" transform="translate(144,94)"/>
<path d="M0 0 C0.99 0 1.98 0 3 0 C3 3.63 3 7.26 3 11 C1 10 1 10 0 9 C-0.07179964 7.48071962 -0.08392007 5.95832518 -0.0625 4.4375 C-0.05347656 3.61121094 -0.04445312 2.78492187 -0.03515625 1.93359375 C-0.02355469 1.29550781 -0.01195312 0.65742187 0 0 Z " fill="#161616" transform="translate(47,83)"/>
<path d="M0 0 C0.33 0 0.66 0 1 0 C1.12375 1.093125 1.2475 2.18625 1.375 3.3125 C1.75464801 7.07381802 1.75464801 7.07381802 4 10 C2.35 10.33 0.7 10.66 -1 11 C-2.26264601 6.70700357 -1.62950412 4.12168689 0 0 Z " fill="#E8E8E8" transform="translate(53,95)"/>
<path d="M0 0 C0.3125 3.25 0.3125 3.25 0 7 C-2.5 9.4375 -2.5 9.4375 -5 11 C-5.66 10.67 -6.32 10.34 -7 10 C-6.525625 9.443125 -6.05125 8.88625 -5.5625 8.3125 C-3.87056628 5.80843809 -3.5539583 3.92806531 -3 1 C-1 0 -1 0 0 0 Z " fill="#CECECE" transform="translate(119,95)"/>
<path d="M0 0 C0.66 1.32 1.32 2.64 2 4 C1.34 4 0.68 4 0 4 C0 4.66 0 5.32 0 6 C2.475 6.99 2.475 6.99 5 8 C5 8.33 5 8.66 5 9 C2.625 9.1875 2.625 9.1875 0 9 C-2 6 -2 6 -1.6875 3.375 C-1 1 -1 1 0 0 Z " fill="#D7D7D7" transform="translate(105,94)"/>
<path d="M0 0 C3.3 0 6.6 0 10 0 C9.67 1.32 9.34 2.64 9 4 C4.545 3.01 4.545 3.01 0 2 C0 1.34 0 0.68 0 0 Z " fill="#151515" transform="translate(86,95)"/>
<path d="M0 0 C2.875 -0.125 2.875 -0.125 6 0 C6.66 0.66 7.32 1.32 8 2 C5.03 2.66 2.06 3.32 -1 4 C-0.67 2.68 -0.34 1.36 0 0 Z " fill="#1B1B1B" transform="translate(105,90)"/>
<path d="M0 0 C2.31 0.33 4.62 0.66 7 1 C6.34 2.32 5.68 3.64 5 5 C3.02 4.01 1.04 3.02 -1 2 C-0.67 1.34 -0.34 0.68 0 0 Z " fill="#212121" transform="translate(126,90)"/>
<path d="M0 0 C-0.99 0.495 -0.99 0.495 -2 1 C-2 2.65 -2 4.3 -2 6 C-4 3 -4 3 -4 1 C-5.98 1 -7.96 1 -10 1 C-10 0.67 -10 0.34 -10 0 C-6.33694766 -0.74926071 -3.57644848 -1.2380014 0 0 Z " fill="#363636" transform="translate(115,93)"/>
<path d="M0 0 C2 2 4 4 6 6 C3.6568787 5.74438677 1.32156597 5.40729228 -1 5 C-1.33 4.34 -1.66 3.68 -2 3 C-1.34 2.67 -0.68 2.34 0 2 C0 1.34 0 0.68 0 0 Z " fill="#474747" transform="translate(123,101)"/>
<path d="M0 0 C1.98 0 3.96 0 6 0 C5.67 0.99 5.34 1.98 5 3 C3.35 3 1.7 3 0 3 C0 2.01 0 1.02 0 0 Z " fill="#191919" transform="translate(126,103)"/>
<path d="M0 0 C0.66 0.33 1.32 0.66 2 1 C1.67 2.65 1.34 4.3 1 6 C0.01 5.67 -0.98 5.34 -2 5 C-2.99 5.495 -2.99 5.495 -4 6 C-2.84826645 3.53199953 -1.95216435 1.95216435 0 0 Z " fill="#323232" transform="translate(58,90)"/>
<path d="M0 0 C1.485 0.99 1.485 0.99 3 2 C2.01 3.98 1.02 5.96 0 8 C-0.33 8 -0.66 8 -1 8 C-1.04241723 5.66705225 -1.04092937 3.33297433 -1 1 C-0.67 0.67 -0.34 0.34 0 0 Z " fill="#202020" transform="translate(47,93)"/>
<path d="M0 0 C0.66 0.66 1.32 1.32 2 2 C0.68 3.32 -0.64 4.64 -2 6 C-2.66 4.68 -3.32 3.36 -4 2 C-2.68 1.34 -1.36 0.68 0 0 Z " fill="#FCFCFC" transform="translate(147,95)"/>
</svg>
